HIERARCHY
ROOT joint_0
{
	OFFSET 0.000000 0.000000 0.000000
	CHANNELS 6 Xposition Yposition Zposition Zrotation Yrotation Xrotation 
	JOINT joint_1
	{
		OFFSET 14.113007 -2.961990 123.953979
		CHANNELS 3 Zrotation Yrotation Xrotation
		JOINT joint_2
		{
			OFFSET 0.764000 -2.434006 113.871948
			CHANNELS 3 Zrotation Yrotation Xrotation
			JOINT joint_3
			{
				OFFSET 0.186996 -2.169998 113.753052
				CHANNELS 3 Zrotation Yrotation Xrotation
				JOINT joint_4
				{
					OFFSET 16.096001 -2.720001 160.853027
					CHANNELS 3 Zrotation Yrotation Xrotation
					JOINT joint_5
					{
						OFFSET 34.392006 -0.188995 92.567017
						CHANNELS 3 Zrotation Yrotation Xrotation
						End Site
						{
							OFFSET 0.000000 0.000000 0.000000
						}
					}
				}
				JOINT joint_6
				{
					OFFSET 9.183998 -36.684006 89.597046
					CHANNELS 3 Zrotation Yrotation Xrotation
					JOINT joint_7
					{
						OFFSET 0.486000 -164.365997 -28.984009
						CHANNELS 3 Zrotation Yrotation Xrotation
						JOINT joint_8
						{
							OFFSET 38.899002 -34.967010 -291.651978
							CHANNELS 3 Zrotation Yrotation Xrotation
							JOINT joint_9
							{
								OFFSET 41.714005 -45.890991 -258.857056
								CHANNELS 3 Zrotation Yrotation Xrotation
								End Site
								{
									OFFSET 0.000000 0.000000 0.000000
								}
							}
						}
					}
				}
				JOINT joint_10
				{
					OFFSET 8.867004 33.650002 90.817993
					CHANNELS 3 Zrotation Yrotation Xrotation
					JOINT joint_11
					{
						OFFSET 0.018997 164.299999 -29.368042
						CHANNELS 3 Zrotation Yrotation Xrotation
						JOINT joint_12
						{
							OFFSET 29.440994 30.887997 -293.216919
							CHANNELS 3 Zrotation Yrotation Xrotation
							JOINT joint_13
							{
								OFFSET 46.174011 54.490005 -256.422058
								CHANNELS 3 Zrotation Yrotation Xrotation
								End Site
								{
									OFFSET 0.000000 0.000000 0.000000
								}
							}
						}
					}
				}
			}
		}
	}
	JOINT joint_14
	{
		OFFSET -2.264000 -89.466995 -116.150024
		CHANNELS 3 Zrotation Yrotation Xrotation
		JOINT joint_15
		{
			OFFSET -16.400993 -17.452988 -493.781982
			CHANNELS 3 Zrotation Yrotation Xrotation
			JOINT joint_16
			{
				OFFSET -50.497004 -13.404022 -424.754013
				CHANNELS 3 Zrotation Yrotation Xrotation
				JOINT joint_17
				{
					OFFSET 198.546007 -19.341003 -89.309000
					CHANNELS 3 Zrotation Yrotation Xrotation
					End Site
					{
						OFFSET 0.000000 0.000000 0.000000
					}
				}
			}
		}
	}
	JOINT joint_18
	{
		OFFSET -0.867996 96.016006 -110.817993
		CHANNELS 3 Zrotation Yrotation Xrotation
		JOINT joint_19
		{
			OFFSET -10.130997 24.658998 -493.645020
			CHANNELS 3 Zrotation Yrotation Xrotation
			JOINT joint_20
			{
				OFFSET -48.871004 19.434999 -424.714005
				CHANNELS 3 Zrotation Yrotation Xrotation
				JOINT joint_21
				{
					OFFSET 195.579996 24.926001 -94.327003
					CHANNELS 3 Zrotation Yrotation Xrotation
					End Site
					{
						OFFSET 0.000000 0.000000 0.000000
					}
				}
			}
		}
	}
}
MOTION
Frames: 7
Frame Time: 0.016667
77.950000 -144.451000 1141.781980 0.080149 -4.333650 -0.588028 -0.434902 -0.370352 1.515879 -0.422607 0.054526 -0.305751 -0.424307 0.000678 0.174160 0.308204 0.125576 -0.820825 0.000000 0.000000 0.000000 3.970569 0.764922 -0.428905 -0.158239 1.496053 0.456907 -0.098133 0.635791 0.094779 0.000000 0.000000 0.000000 0.274045 0.285000 -0.406421 0.024139 0.239504 0.276836 -0.078561 0.389179 -0.896242 0.000000 0.000000 0.000000 -0.104473 3.288676 1.100670 -0.032152 2.048737 0.280810 0.159322 -2.371143 -0.159351 0.000000 0.000000 0.000000 -1.811638 1.917443 -0.576671 -1.830684 1.547569 -0.408762 -1.901371 -0.871011 -0.802857 0.000000 0.000000 0.000000 
78.415000 -144.311000 1142.093990 0.072667 -4.003087 -0.551474 -0.491794 -0.286697 1.619449 -0.479414 0.050170 -0.374954 -0.481787 -0.029850 0.224459 0.305009 -0.043323 -0.813916 0.000000 0.000000 0.000000 3.462187 0.668717 -0.464034 -0.124415 1.304096 0.445677 -0.066799 0.426009 0.055824 0.000000 0.000000 0.000000 0.519324 0.467359 -0.493043 -0.000209 0.373233 0.433177 -0.192027 0.065159 -1.142987 0.000000 0.000000 0.000000 -0.106810 2.934593 1.031298 -0.051821 2.071390 0.336167 0.147920 -2.379467 -0.165287 0.000000 0.000000 0.000000 -1.806568 1.566612 -0.584263 -1.806414 1.558001 -0.479050 -1.885008 -0.841767 -0.798756 0.000000 0.000000 0.000000 
79.238000 -144.119000 1142.574950 0.054782 -3.526373 -0.502229 -0.577462 -0.144857 1.756884 -0.565482 0.038314 -0.468135 -0.568738 -0.075409 0.294168 0.298753 -0.340401 -0.799353 0.000000 0.000000 0.000000 2.761137 0.544904 -0.551880 -0.069337 1.046985 0.472912 -0.007321 0.091940 0.055848 0.000000 0.000000 0.000000 0.796005 0.757205 -0.574191 -0.036703 0.606622 0.639711 -0.364293 -0.426532 -1.521383 0.000000 0.000000 0.000000 -0.105783 2.444961 0.936194 -0.074030 2.077994 0.412506 0.135963 -2.386993 -0.171401 0.000000 0.000000 0.000000 -1.798151 1.088027 -0.591764 -1.773657 1.538289 -0.575803 -1.861202 -0.796162 -0.793178 0.000000 0.000000 0.000000 
80.984000 -144.120000 1143.083010 -0.027209 -2.955042 -0.438293 -0.703902 0.043836 1.845463 -0.693842 0.006977 -0.531663 -0.696632 -0.071825 0.333953 0.314825 -1.091109 -0.844992 0.000000 0.000000 0.000000 2.336087 0.515384 -0.826639 0.003495 0.930338 0.603652 0.142845 -0.457080 0.383083 0.000000 0.000000 0.000000 0.919663 1.224717 -0.336672 -0.109055 1.039447 0.695709 -0.626726 -1.159567 -2.127392 0.000000 0.000000 0.000000 -0.075429 1.978040 0.836366 -0.059849 1.917964 0.470499 0.149871 -2.354253 -0.161973 0.000000 0.000000 0.000000 -1.784005 0.663304 -0.619375 -1.749985 1.310525 -0.618462 -1.826151 -0.679379 -0.791390 0.000000 0.000000 0.000000 
83.941000 -144.405000 1143.621950 -0.185677 -2.245750 -0.361152 -0.920891 0.388255 1.858922 -0.917388 -0.069571 -0.554083 -0.916605 0.045478 0.327483 0.368529 -2.843908 -0.981810 0.000000 0.000000 0.000000 2.394517 0.625069 -1.466983 0.119496 1.031651 0.905508 0.483056 -1.488227 1.354943 0.000000 0.000000 0.000000 0.804732 2.069048 0.520698 -0.279211 1.875722 0.423898 -1.122558 -2.646546 -3.207906 0.000000 0.000000 0.000000 -0.001850 1.570253 0.733845 0.011331 1.453186 0.498188 0.202748 -2.255956 -0.128636 0.000000 0.000000 0.000000 -1.781153 0.355309 -0.678616 -1.766726 0.679371 -0.545815 -1.789307 -0.407073 -0.808713 0.000000 0.000000 0.000000 
87.820000 -144.884000 1144.187990 -0.407482 -1.452082 -0.274059 -1.177985 0.803717 1.811392 -1.184295 -0.163137 -0.553212 -1.178940 0.191642 0.298474 0.427686 -5.081366 -1.087783 0.000000 0.000000 0.000000 2.693047 0.827694 -2.227024 0.246581 1.268323 1.210943 0.918671 -2.729357 2.669974 0.000000 0.000000 0.000000 0.614976 3.108097 1.576661 -0.463376 2.921827 0.054235 -1.692194 -4.484882 -4.447702 0.000000 0.000000 0.000000 0.100703 1.198556 0.626623 0.119111 0.816311 0.507555 0.280839 -2.100637 -0.078395 0.000000 0.000000 0.000000 -1.773181 0.114831 -0.758168 -1.794045 -0.165329 -0.411168 -1.742008 -0.044668 -0.832465 0.000000 0.000000 0.000000 
92.324000 -145.530000 1144.636960 -0.710205 -0.749634 -0.179367 -1.344869 0.935552 1.699713 -1.355430 -0.187224 -0.526210 -1.348806 0.227747 0.262413 0.464318 -6.492710 -1.107399 0.000000 0.000000 0.000000 3.087821 1.111955 -2.667617 0.299021 1.617842 1.311916 1.211762 -3.468492 3.645132 0.000000 0.000000 0.000000 0.467635 3.831456 2.208813 -0.511897 3.672016 -0.083861 -1.955739 -5.245829 -5.236857 0.000000 0.000000 0.000000 0.216510 0.906101 0.530840 0.240694 0.268847 0.497537 0.371007 -1.909646 -0.019243 0.000000 0.000000 0.000000 -1.708137 -0.070395 -0.842189 -1.756616 -0.817396 -0.311778 -1.652515 0.221510 -0.823547 0.000000 0.000000 0.000000 
